<?xml version="1.0" standalone="no"?>
<!DOCTYPE svg PUBLIC "-//W3C//DTD SVG 20010904//EN"
 "http://www.w3.org/TR/2001/REC-SVG-20010904/DTD/svg10.dtd">
<svg version="1.0" xmlns="http://www.w3.org/2000/svg"
 width="512.000000pt" height="512.000000pt" viewBox="0 0 512.000000 512.000000"
 preserveAspectRatio="xMidYMid meet">
<metadata>
Created by potrace 1.11, written by Peter Selinger 2001-2013
</metadata>
<g transform="translate(0.000000,512.000000) scale(0.100000,-0.100000)"
fill="#000000" stroke="none">
<path d="M703 4785 c-183 -40 -332 -200 -364 -391 -35 -216 100 -441 309 -516
259 -93 547 60 617 327 56 217 -47 441 -247 539 -113 56 -197 67 -315 41z
m239 -172 c67 -30 130 -92 161 -161 31 -67 30 -188 -1 -257 -30 -65 -102 -138
-166 -167 -77 -34 -192 -32 -268 5 -128 63 -199 200 -176 343 11 70 38 124 88
174 48 48 89 70 160 86 69 16 129 9 202 -23z"/>
<path d="M2631 3226 l-324 -324 -54 24 c-173 76 -362 114 -567 114 -234 0
-415 -40 -612 -134 -356 -171 -614 -458 -743 -828 -30 -86 -68 -264 -73 -343
l-3 -40 -127 -3 -128 -3 0 -74 0 -75 2560 0 2560 0 0 75 0 75 -148 0 -147 0
-359 359 -359 359 279 4 c239 3 285 6 318 21 63 28 99 61 131 118 72 133 14
293 -131 356 -30 13 -78 18 -218 21 l-179 4 -28 33 c-16 18 -53 43 -81 56 -52
23 -61 24 -394 27 l-341 4 -249 249 c-137 137 -251 249 -254 249 -3 0 -151
-146 -329 -324z m578 -218 c-173 -99 -167 -346 11 -443 54 -29 58 -29 239 -33
l184 -5 29 -32 c37 -42 107 -75 160 -75 42 0 42 0 408 -365 l365 -365 -309 2
-308 3 -19 73 c-60 235 -257 423 -492 467 -54 10 -146 15 -296 15 l-216 0 -32
58 c-88 159 -243 336 -395 450 -49 36 -88 68 -88 71 0 3 114 120 252 258 l253
253 152 -152 152 -152 -50 -28z m-1313 -133 c311 -55 599 -226 788 -469 65
-83 162 -243 172 -283 5 -18 13 -23 40 -23 19 0 34 -2 34 -5 0 -3 -24 -35 -54
-71 -66 -80 -112 -171 -134 -264 l-16 -70 -239 0 -240 0 6 37 c11 68 67 165
131 228 83 81 161 118 299 140 l37 6 0 75 0 76 -62 -7 c-276 -31 -501 -234
-559 -507 l-11 -48 -840 0 -841 0 7 71 c4 39 10 77 13 85 4 11 29 14 109 14
l104 0 0 75 0 75 -86 0 c-98 0 -94 -9 -44 110 162 385 534 678 955 754 109 19
321 20 431 1z m2263 -11 c18 -15 33 -39 37 -60 l6 -34 225 0 225 0 29 -29 c23
-23 29 -38 29 -71 0 -33 -6 -48 -29 -71 l-29 -29 -419 0 c-381 0 -420 2 -439
18 -26 21 -44 54 -44 81 0 21 -4 21 -225 21 l-225 0 -32 29 c-27 24 -33 36
-33 71 0 35 6 47 33 71 l32 29 414 0 414 0 31 -26z m-674 -786 c66 -16 156
-70 211 -125 53 -53 118 -168 130 -230 l7 -33 -476 0 -475 0 12 48 c69 257
328 406 591 340z"/>
<path d="M810 1935 l0 -75 195 0 195 0 0 75 0 75 -195 0 -195 0 0 -75z"/>
<path d="M330 1295 l0 -75 195 0 195 0 0 75 0 75 -195 0 -195 0 0 -75z"/>
<path d="M4160 1215 l0 -75 155 0 155 0 0 75 0 75 -155 0 -155 0 0 -75z"/>
<path d="M730 975 l0 -75 675 0 675 0 0 75 0 75 -675 0 -675 0 0 -75z"/>
<path d="M3120 975 l0 -75 475 0 475 0 0 75 0 75 -475 0 -475 0 0 -75z"/>
<path d="M1210 495 l0 -75 115 0 115 0 0 75 0 75 -115 0 -115 0 0 -75z"/>
<path d="M1690 340 l0 -80 1110 0 1110 0 0 80 0 80 -1110 0 -1110 0 0 -80z"/>
<path d="M0 260 l0 -80 240 0 240 0 0 80 0 80 -240 0 -240 0 0 -80z"/>
</g>
</svg>
