<svg xmlns="http://www.w3.org/2000/svg" viewBox="0 0 490 490"><circle cx="77.25" cy="76.25" r="38.125" fill="#fff"/><path fill="#fff" d="M283.127 160.126v83.876h30.5l-38.125 38.125-45.751-61z"/><path d="M38.043 335.502c0-71.59 58.035-129.626 129.626-129.626 71.59 0 129.626 58.035 129.626 129.626" fill="#fff"/><path d="M38.043 335.502c0-58.957 47.794-106.751 106.751-106.751s106.751 47.794 106.751 106.751M283.127 160.126v83.876h30.5l-34.313 34.313v57.187h171.564v-15.25z" fill="#99d9f4"/><path d="M267.877 335.502c0-29.478 23.897-53.375 53.375-53.375s53.375 23.897 53.375 53.375" fill="#99d9f4"/><path d="M275.502 327.877c0-12.634 10.241-22.875 22.875-22.875s22.875 10.242 22.875 22.875" fill="#1d71b8"/><path d="M77.25 122.001c-25.227 0-45.75-20.524-45.75-45.75 0-25.227 20.524-45.75 45.75-45.75 25.227 0 45.75 20.524 45.75 45.75.001 25.226-20.523 45.75-45.75 45.75zm0-76.251c-16.818 0-30.5 13.682-30.5 30.5s13.682 30.5 30.5 30.5 30.5-13.682 30.5-30.5c.001-16.818-13.682-30.5-30.5-30.5zM31.5 358.378h38.125v15.25H31.5zM69.625 388.878h129.626v15.25H69.625zM115.375 434.628h22.875v15.25h-22.875zM161.126 449.878h213.502v15.25H161.126zM0 457.503h46.75v15.25H0zM298.377 388.878h91.501v15.25h-91.501zM397.503 366.003h30.5v15.25h-30.5zM461.661 327.877L283.127 149.343l-62.551 62.551c-18.229-8.806-38.483-13.642-59.45-13.642-73.121 0-133.065 57.479-137.036 129.626H0v15.25h490v-15.25l-28.339-.001zM283.127 170.91l156.968 156.968h-58.336c-3.766-30.048-29.455-53.375-60.507-53.375h-37.274c-11.37-22.866-28.693-41.673-49.549-54.895l48.698-48.698zm38.125 118.842c22.628 0 41.461 16.517 45.103 38.125h-90.206c3.642-21.608 22.475-38.125 45.103-38.125zM41.285 312.627H62v-15.25H45.233c16.047-48.656 61.931-83.876 115.893-83.876 47.732 0 91.336 28.172 111.088 71.772l2.029 4.478h6.726c-10.888 9.599-18.328 23.008-20.223 38.125H215.15c3.642-21.608 22.475-38.125 45.103-38.125v-15.25c-31.052 0-56.741 23.327-60.507 53.375H39.37c.321-5.175.966-10.265 1.915-15.249z" fill="#1d1d1b"/><path fill="#1d1d1b" d="M77.25 297.377h38.125v15.25H77.25z"/><path d="M368.909 251.627c-7.456 0-13.816-4.781-16.176-11.438h-33.387c-9.46 0-17.156-7.697-17.156-17.156 0-9.46 7.696-17.156 17.156-17.156h72.438c7.456 0 13.816 4.78 16.176 11.438h33.386c9.46 0 17.156 7.697 17.156 17.156 0 9.46-7.696 17.157-17.156 17.157l-72.437-.001z" fill="#fff"/><path d="M391.784 213.501a9.53 9.53 0 019.339 11.437h40.224c5.264 0 9.531 4.267 9.531 9.531S446.611 244 441.347 244h-72.438c-5.264 0-9.531-4.268-9.531-9.531 0-.653.067-1.29.192-1.906h-40.224c-5.264 0-9.531-4.267-9.531-9.531s4.267-9.531 9.531-9.531h72.438m0-15.25h-72.438c-13.664 0-24.781 11.117-24.781 24.781s11.117 24.781 24.781 24.781h28.689c4.409 6.874 12.119 11.438 20.874 11.438h72.438c13.665 0 24.781-11.117 24.781-24.781s-11.117-24.781-24.781-24.781h-28.689c-4.409-6.874-12.119-11.438-20.874-11.438z" fill="#1d1d1b"/></svg>
